<?xml version="1.0" encoding="utf-8"?>
<!-- Generator: Adobe Illustrator 16.0.0, SVG Export Plug-In . SVG Version: 6.00 Build 0)  -->
<!DOCTYPE svg PUBLIC "-//W3C//DTD SVG 1.1//EN" "http://www.w3.org/Graphics/SVG/1.1/DTD/svg11.dtd">
<svg version="1.1" id="Capa_1" xmlns="http://www.w3.org/2000/svg" xmlns:xlink="http://www.w3.org/1999/xlink" x="0px" y="0px"
	 width="321.219px" height="80.574px" viewBox="0 0 321.219 80.574" enable-background="new 0 0 321.219 80.574"
	 xml:space="preserve">
<path fill="#FFFFFF" d="M45.685,59.188c-0.918,0.777-2.1,1.394-3.543,1.851c-1.446,0.46-3.12,0.688-5.024,0.688
	c-2.538,0-4.637-0.317-6.292-0.951c-1.657-0.635-2.733-1.727-3.226-3.278c-1.975-6.203-3.596-11.227-4.865-15.069
	c-1.27-3.842-2.257-7.208-2.961-10.1h-0.528c-0.212,4.161-0.371,7.949-0.477,11.368c-0.105,3.421-0.177,6.752-0.211,9.993
	c-0.037,3.244-0.106,6.522-0.212,9.835c-0.106,3.314-0.265,6.979-0.476,10.998c-0.917,0.354-2.114,0.651-3.594,0.899
	c-1.48,0.246-2.961,0.37-4.441,0.37c-3.104,0-5.518-0.494-7.244-1.48C0.862,73.323,0,71.526,0,68.917l3.067-53.933
	c0.564-0.915,1.797-1.903,3.701-2.961c1.904-1.058,4.582-1.586,8.037-1.586c3.734,0,6.661,0.581,8.776,1.744
	s3.666,3.051,4.654,5.658c0.635,1.691,1.322,3.632,2.063,5.816c0.74,2.186,1.48,4.441,2.221,6.768s1.462,4.637,2.168,6.927
	c0.703,2.292,1.338,4.354,1.902,6.187h0.529c1.692-5.922,3.385-11.649,5.077-17.185c1.691-5.534,3.242-10.169,4.652-13.906
	c1.059-0.563,2.415-1.039,4.073-1.428c1.655-0.387,3.506-0.581,5.552-0.581c3.453,0,6.272,0.512,8.458,1.533
	c2.184,1.022,3.453,2.485,3.807,4.389c0.281,1.411,0.582,3.579,0.898,6.503c0.318,2.927,0.652,6.223,1.006,9.888
	c0.352,3.667,0.703,7.545,1.057,11.633c0.352,4.09,0.688,8.021,1.005,11.791c0.317,3.772,0.581,7.228,0.793,10.363
	c0.212,3.138,0.353,5.552,0.423,7.244c-1.199,0.706-2.45,1.216-3.754,1.533c-1.305,0.317-2.979,0.477-5.023,0.477
	c-2.68,0-4.935-0.46-6.766-1.375c-1.834-0.916-2.82-2.713-2.961-5.394c-0.424-7.684-0.688-14.594-0.793-20.727
	c-0.105-6.134-0.265-11.279-0.477-15.439h-0.528c-0.706,2.749-1.729,6.204-3.067,10.363C49.208,47.38,47.587,52.702,45.685,59.188z"
	/>
<path fill="#FFFFFF" d="M111.036,76.637c-4.16,0-8.021-0.582-11.58-1.745c-3.561-1.163-6.662-2.908-9.307-5.234
	c-2.643-2.326-4.723-5.251-6.238-8.777c-1.518-3.524-2.273-7.648-2.273-12.373c0-4.652,0.756-8.653,2.273-12.002
	c1.516-3.348,3.506-6.098,5.975-8.249c2.467-2.149,5.287-3.736,8.461-4.759c3.172-1.021,6.414-1.533,9.729-1.533
	c3.736,0,7.139,0.565,10.205,1.692c3.066,1.128,5.711,2.68,7.932,4.652c2.221,1.975,3.947,4.336,5.182,7.086
	c1.232,2.749,1.85,5.746,1.85,8.988c0,2.397-0.67,4.23-2.01,5.499s-3.209,2.08-5.604,2.433l-26.121,3.912
	c0.775,2.327,2.361,4.071,4.76,5.235c2.395,1.163,5.145,1.744,8.248,1.744c2.891,0,5.621-0.37,8.195-1.11
	c2.572-0.74,4.67-1.603,6.293-2.591c1.127,0.706,2.078,1.692,2.855,2.961c0.773,1.27,1.162,2.609,1.162,4.019
	c0,3.173-1.48,5.535-4.441,7.086c-2.258,1.199-4.795,2.009-7.613,2.432C116.147,76.425,113.502,76.637,111.036,76.637z
	 M108.276,33.895c-2.12,0-3.957,0.354-5.503,1.061c-1.548,0.708-2.808,1.614-3.779,2.719c-0.975,1.105-1.704,2.344-2.189,3.712
	c-0.484,1.372-0.773,2.764-0.862,4.178l22.678-3.713c-0.265-1.767-1.239-3.536-2.917-5.305
	C114.022,34.779,111.546,33.895,108.276,33.895z"/>
<path fill="#FFFFFF" d="M153.971,76.002c-2.82-0.423-5.357-1.232-7.615-2.432c-2.961-1.551-4.441-3.913-4.441-7.086
	c0-1.409,0.389-2.749,1.164-4.019c0.775-1.269,1.729-2.255,2.855-2.961c1.621,0.988,3.719,1.851,6.291,2.591
	c2.574,0.74,5.307,1.11,8.195,1.11c3.104,0,5.854-0.581,8.25-1.744c2.396-1.164,3.982-2.908,4.758-5.235l-26.119-3.912
	c-2.396-0.353-4.266-1.164-5.605-2.433c-1.338-1.269-2.01-3.102-2.01-5.499c0-3.242,0.619-6.239,1.852-8.988
	c1.234-2.75,2.961-5.111,5.182-7.086c2.221-1.973,4.863-3.524,7.932-4.652c3.066-1.127,6.469-1.692,10.203-1.692
	c3.314,0,6.557,0.512,9.73,1.533c3.172,1.022,5.992,2.609,8.459,4.759c2.469,2.151,4.461,4.901,5.975,8.249
	c1.518,3.349,2.273,7.35,2.273,12.002c0,4.725-0.756,8.849-2.273,12.373c-1.514,3.526-3.596,6.451-6.238,8.777
	c-2.645,2.326-5.746,4.071-9.307,5.234c-3.559,1.163-7.418,1.745-11.58,1.745C159.434,76.637,156.792,76.425,153.971,76.002z
	 M157.233,36.443c-1.676,1.827-2.651,3.652-2.916,5.477l22.678,3.834c-0.088-1.459-0.374-2.896-0.862-4.313
	c-0.485-1.414-1.214-2.691-2.189-3.833c-0.971-1.14-2.232-2.074-3.778-2.807c-1.546-0.729-3.38-1.095-5.504-1.095
	C161.389,33.706,158.915,34.619,157.233,36.443z"/>
<path fill="#FFFFFF" d="M217.948,57.284c0,1.834,0.582,3.138,1.744,3.913c1.164,0.776,2.803,1.163,4.918,1.163
	c1.057,0,2.15-0.088,3.277-0.265c1.127-0.175,2.115-0.404,2.961-0.688c0.635,0.777,1.18,1.64,1.641,2.591
	c0.457,0.952,0.688,2.099,0.688,3.438c0,2.68-1.006,4.864-3.016,6.557c-2.008,1.691-5.551,2.538-10.627,2.538
	c-6.205,0-10.982-1.411-14.33-4.23s-5.021-7.402-5.021-13.747V13.292c0.773-0.211,1.885-0.439,3.33-0.688
	c1.445-0.246,2.979-0.37,4.6-0.37c3.102,0,5.516,0.548,7.244,1.64c1.727,1.094,2.592,3.402,2.592,6.927v6.768h13.854
	c0.422,0.776,0.828,1.745,1.215,2.908s0.582,2.45,0.582,3.86c0,2.469-0.547,4.248-1.639,5.34c-1.094,1.094-2.557,1.64-4.389,1.64
	h-9.623V57.284z"/>
<path fill="#00C3A9" d="M241.762,9.36c0-2.635,0.885-4.853,2.652-6.656C246.182,0.902,248.522,0,251.434,0s5.252,0.902,7.02,2.704
	c1.77,1.804,2.652,4.021,2.652,6.656c0,2.636-0.883,4.854-2.652,6.655c-1.768,1.805-4.107,2.704-7.02,2.704s-5.252-0.899-7.02-2.704
	C242.647,14.214,241.762,11.996,241.762,9.36z M260.274,75.841c-0.764,0.139-1.889,0.328-3.379,0.572
	c-1.492,0.242-3,0.364-4.525,0.364s-2.895-0.104-4.107-0.313s-2.236-0.624-3.068-1.248s-1.473-1.472-1.924-2.548
	c-0.451-1.074-0.676-2.478-0.676-4.212V26.129c0.762-0.138,1.889-0.328,3.381-0.572c1.49-0.241,2.998-0.363,4.523-0.363
	c1.523,0,2.895,0.104,4.107,0.312s2.236,0.624,3.068,1.248s1.473,1.474,1.924,2.548c0.451,1.076,0.676,2.48,0.676,4.212V75.841z"/>
<path fill="#00C3A9" d="M303.538,42.912c0-2.147-0.607-3.726-1.818-4.731c-1.215-1.004-2.861-1.508-4.941-1.508
	c-1.387,0-2.756,0.174-4.107,0.52c-1.352,0.348-2.514,0.868-3.484,1.561v36.088c-0.693,0.208-1.785,0.416-3.275,0.624
	c-1.492,0.208-3.033,0.312-4.629,0.312c-1.525,0-2.895-0.104-4.107-0.312s-2.236-0.624-3.068-1.248s-1.473-1.473-1.924-2.548
	c-0.451-1.074-0.676-2.479-0.676-4.212v-31.2c0-1.872,0.398-3.396,1.195-4.576c0.797-1.178,1.889-2.252,3.277-3.224
	c2.355-1.664,5.32-3.017,8.891-4.057s7.541-1.56,11.908-1.56c7.834,0,13.867,1.716,18.096,5.147c4.229,3.433,6.346,8.2,6.346,14.301
	v32.552c-0.695,0.208-1.787,0.416-3.277,0.624c-1.492,0.208-3.033,0.312-4.627,0.312c-1.527,0-2.896-0.104-4.109-0.312
	s-2.234-0.624-3.066-1.248s-1.475-1.473-1.924-2.548c-0.453-1.074-0.678-2.479-0.678-4.212V42.912z"/>
</svg>
